<?xml version="1.0" encoding="UTF-8" standalone="no"?>
<!DOCTYPE svg PUBLIC "-//W3C//DTD SVG 20010904//EN"
              "http://www.w3.org/TR/2001/REC-SVG-20010904/DTD/svg10.dtd">

<svg xmlns="http://www.w3.org/2000/svg"
     width="0.75in" height="0.66in"
     viewBox="0 0 225 198">
  <path id="Selection"
        fill="#d66694" stroke="#d66694" stroke-width="1"
        d="M 40.11,9.43
           C 43.65,6.56 54.81,4.97 58.96,7.17
             63.55,9.62 63.30,13.77 67.13,15.40
             70.77,16.95 71.94,14.43 82.00,20.00
             81.45,21.37 79.87,24.55 79.99,25.87
             80.20,28.28 83.22,29.58 85.00,30.74
             88.66,33.15 89.70,33.78 91.00,38.00
             91.00,38.00 85.00,42.00 85.00,42.00
             85.00,42.00 95.00,44.00 95.00,44.00
             92.76,48.72 91.05,50.51 86.00,52.00
             86.00,52.00 101.00,60.00 101.00,60.00
             97.08,66.06 96.30,66.99 103.00,71.00
             103.00,71.00 103.00,73.00 103.00,73.00
             103.00,73.00 99.00,75.00 99.00,75.00
             103.30,75.57 110.03,77.10 114.00,76.82
             135.00,75.33 156.10,67.91 174.00,83.00
             178.14,77.83 182.47,76.30 189.00,76.04
             192.02,75.92 195.15,76.06 198.00,77.14
             206.70,80.44 210.30,87.32 211.57,96.00
             212.71,103.78 211.85,111.91 220.00,116.00
             218.34,120.66 213.57,121.28 209.00,121.67
             198.97,122.54 191.54,116.63 186.00,109.00
             188.00,124.13 187.78,135.39 183.00,150.00
             183.00,150.00 200.04,130.02 200.04,130.02
             204.84,127.52 211.18,130.43 211.67,136.00
             211.97,139.42 208.84,146.01 207.12,149.00
             200.74,160.10 187.75,169.51 177.00,176.19
             171.38,179.68 168.14,181.88 162.00,184.69
             141.94,193.89 112.70,197.64 91.00,193.54
             80.40,191.54 71.56,188.11 62.00,183.24
             48.16,176.21 34.43,164.98 27.18,151.00
             24.30,145.22 20.16,136.47 27.18,131.74
             30.16,129.67 33.85,130.18 36.51,132.65
             36.51,132.65 42.90,142.00 42.90,142.00
             47.62,148.25 53.39,153.80 60.00,158.00
             50.36,140.99 50.37,125.79 52.17,107.00
             53.08,97.47 55.57,82.03 53.00,73.00
             45.58,90.33 20.55,94.17 8.21,79.98
             -0.68,69.77 2.19,50.89 10.33,41.00
             13.96,36.58 17.64,33.10 23.00,31.00
             23.00,31.00 23.00,29.00 23.00,29.00
             17.52,26.34 16.36,23.72 15.00,18.00
             15.00,18.00 26.00,20.00 26.00,20.00
             26.00,20.00 27.00,10.00 27.00,10.00
             27.00,10.00 36.00,16.00 36.00,16.00
             36.98,13.14 37.64,11.43 40.11,9.43 Z
           M 59.40,14.06
           C 57.50,9.35 51.56,9.19 49.74,13.23
             47.91,17.28 50.24,22.10 53.00,25.00
             55.62,19.35 55.39,17.67 53.00,12.00
             58.35,14.69 57.68,16.15 60.00,21.00
             59.99,19.04 60.12,15.83 59.40,14.06 Z
           M 39.00,20.00
           C 39.00,20.00 29.00,16.00 29.00,16.00
             29.00,16.00 31.00,23.00 31.00,23.00
             31.00,23.00 19.00,22.00 19.00,22.00
             25.89,31.06 29.00,27.08 38.00,25.23
             41.07,24.91 43.91,25.00 47.00,25.23
             47.00,25.23 45.00,12.00 45.00,12.00
             40.33,13.53 39.88,15.39 39.00,20.00 Z
           M 64.00,20.00
           C 64.00,20.00 61.00,28.00 61.00,28.00
             74.46,37.64 73.79,46.16 80.86,59.00
             84.56,65.71 87.88,71.06 96.00,72.00
             96.00,72.00 90.00,62.00 90.00,62.00
             90.00,62.00 93.00,61.00 93.00,61.00
             87.48,57.78 85.05,55.68 82.00,50.00
             82.00,50.00 88.00,46.00 88.00,46.00
             82.48,44.24 75.51,40.31 84.00,36.00
             81.24,31.23 76.90,29.99 72.00,28.00
             72.00,28.00 76.00,21.00 76.00,21.00
             70.43,18.44 69.83,19.24 64.00,20.00 Z
           M 53.00,29.00
           C 44.61,29.00 38.06,29.01 30.00,32.06
             24.29,34.23 19.26,37.39 15.21,42.01
             7.47,50.84 3.29,67.07 11.39,76.96
             21.21,88.94 43.06,84.87 50.67,69.00
             53.45,63.21 55.13,54.41 56.00,48.00
             62.58,55.14 56.31,60.99 56.93,68.00
             57.19,71.00 59.79,75.60 59.99,84.00
             60.10,89.05 59.67,90.31 59.16,95.00
             57.15,113.85 53.75,124.76 59.16,144.00
             62.74,156.76 66.76,164.43 80.00,168.00
             74.90,158.31 70.76,148.50 79.21,139.04
             85.54,131.96 95.91,130.04 105.00,130.00
             105.00,130.00 112.00,130.00 112.00,130.00
             127.33,129.98 145.69,125.25 157.81,138.09
             161.07,141.54 163.30,146.27 163.81,151.00
             164.30,155.44 162.86,159.70 162.00,164.00
             173.82,160.62 178.70,150.27 181.00,139.00
             182.40,132.11 182.08,125.00 182.00,118.00
             181.80,101.18 175.95,85.22 158.00,81.00
             158.00,81.00 158.96,89.00 158.96,89.00
             159.51,103.16 150.91,115.79 138.00,121.47
             116.77,130.82 87.97,115.49 89.04,91.00
             89.29,85.40 91.54,82.17 93.00,77.00
             75.91,68.20 75.63,55.78 67.68,41.00
             64.32,34.77 58.92,29.98 54.00,25.00
             54.00,25.00 53.00,29.00 53.00,29.00 Z
           M 44.82,39.23
           C 47.67,44.06 41.74,50.22 41.00,41.00
             41.00,41.00 37.00,45.00 37.00,45.00
             37.00,45.00 35.00,45.00 35.00,45.00
             32.50,34.99 42.07,34.57 44.82,39.23 Z
           M 19.67,73.92
           C 16.38,75.81 8.47,70.22 13.32,65.15
             19.94,64.19 23.48,71.73 19.67,73.92 Z
           M 97.00,79.00
           C 93.11,88.16 92.65,98.52 98.65,107.00
             110.30,123.48 139.46,123.52 150.02,106.00
             155.46,96.97 153.78,89.58 153.00,80.00
             153.00,80.00 150.00,80.00 150.00,80.00
             150.61,87.58 151.85,91.52 148.17,99.00
             143.91,107.64 134.09,115.42 124.00,114.79
             111.96,114.04 96.85,100.63 98.20,88.00
             98.52,84.97 99.74,82.70 101.00,80.00
             101.00,80.00 97.00,79.00 97.00,79.00 Z
           M 104.00,80.00
           C 102.57,87.99 101.97,95.20 107.39,101.98
             116.82,113.78 136.17,112.63 143.33,99.00
             147.09,91.83 145.99,86.51 145.00,79.00
             132.58,79.01 115.42,82.78 104.00,80.00 Z
           M 209.34,108.00
           C 208.29,102.80 209.98,98.66 207.44,92.00
             204.03,83.08 197.08,79.60 188.00,80.04
             184.92,80.19 179.74,81.13 178.32,84.32
             176.56,88.29 182.17,89.19 185.33,95.02
             187.48,98.98 188.24,104.62 191.13,108.96
             196.20,116.55 205.60,117.61 214.00,118.00
             212.52,114.64 210.08,111.64 209.34,108.00 Z
           M 183.00,98.00
           C 183.00,98.00 184.00,99.00 184.00,99.00
             184.00,99.00 184.00,98.00 184.00,98.00
             184.00,98.00 183.00,98.00 183.00,98.00 Z
           M 185.00,106.00
           C 185.00,106.00 186.00,107.00 186.00,107.00
             186.00,107.00 186.00,106.00 186.00,106.00
             186.00,106.00 185.00,106.00 185.00,106.00 Z
           M 196.12,143.00
           C 193.62,147.36 188.76,153.39 184.99,156.70
             165.26,174.00 138.27,178.04 113.00,178.00
             91.64,177.97 64.68,171.01 49.00,155.96
             39.37,146.72 41.53,146.15 35.84,139.06
             34.31,137.15 32.01,134.52 29.30,136.08
             23.62,139.34 32.34,151.70 34.76,155.00
             45.88,170.20 61.35,179.52 79.00,185.33
             101.67,192.79 132.85,191.49 155.00,182.55
             165.11,178.47 177.26,170.65 186.00,164.11
             195.06,157.32 199.55,152.96 205.18,143.00
             207.55,138.83 209.32,133.12 202.21,133.66
             198.49,136.16 198.30,139.21 196.12,143.00 Z
           M 83.11,140.39
           C 81.27,141.99 80.08,143.64 79.43,146.00
             77.87,151.68 80.32,165.57 85.27,169.07
             89.13,171.79 104.90,172.99 110.00,173.00
             121.86,173.02 130.13,173.30 142.00,170.79
             144.88,170.18 151.24,168.95 153.39,167.18
             160.14,161.60 162.08,144.18 149.99,137.67
             140.78,132.72 114.83,133.28 104.00,134.28
             97.07,135.28 88.66,135.55 83.11,140.39 Z
           M 182.00,150.00
           C 182.00,150.00 183.00,151.00 183.00,151.00
             183.00,151.00 183.00,150.00 183.00,150.00
             183.00,150.00 182.00,150.00 182.00,150.00 Z
           M 60.00,158.00
           C 60.00,158.00 61.00,159.00 61.00,159.00
             61.00,159.00 61.00,158.00 61.00,158.00
             61.00,158.00 60.00,158.00 60.00,158.00 Z
           M 161.00,164.00
           C 161.00,164.00 162.00,165.00 162.00,165.00
             162.00,165.00 162.00,164.00 162.00,164.00
             162.00,164.00 161.00,164.00 161.00,164.00 Z" />
</svg>
