<?xml version="1.0" encoding="UTF-8" standalone="no"?>
<!DOCTYPE svg PUBLIC "-//W3C//DTD SVG 20010904//EN"
              "http://www.w3.org/TR/2001/REC-SVG-20010904/DTD/svg10.dtd">

<svg xmlns="http://www.w3.org/2000/svg"
     width="0.643333in" height="0.746667in"
     viewBox="0 0 193 224">
  <path id="Selection"
        fill="#c4306c" stroke="#c4306c" stroke-width="1"
        d="M 9.09,50.00
           C 5.57,46.21 1.95,41.50 3.51,36.00
             6.18,26.63 23.41,14.60 32.00,10.37
             46.40,3.28 56.54,2.93 72.00,3.00
             75.27,3.02 79.05,2.91 81.86,4.85
             86.60,8.14 87.09,20.35 97.00,21.57
             102.78,22.27 108.26,17.27 111.43,13.00
             113.86,9.75 114.03,7.23 117.13,6.60
             121.88,5.63 135.53,9.58 140.00,11.76
             159.84,21.42 170.19,32.06 181.40,51.00
             183.95,55.32 191.10,69.38 190.76,74.00
             190.37,79.30 185.25,81.12 181.00,82.90
             170.35,87.00 157.59,87.64 147.00,82.90
             147.00,110.72 148.59,137.73 142.79,165.00
             140.36,176.42 139.47,186.60 131.33,195.72
             124.71,203.13 105.42,218.48 96.00,221.38
             92.09,222.59 87.09,222.98 83.00,223.00
             71.98,223.05 61.11,223.71 51.04,218.18
             46.34,215.59 40.56,208.33 37.23,204.00
             23.60,186.24 19.75,174.01 20.00,152.00
             20.22,133.63 27.08,111.94 31.63,94.00
             31.63,94.00 37.00,64.00 37.00,64.00
             25.54,63.47 16.82,58.32 9.09,50.00 Z
           M 100.00,34.95
           C 90.56,35.13 81.54,27.74 76.93,20.00
             73.78,14.72 74.23,11.55 72.27,9.99
             70.56,8.64 65.23,8.98 63.00,9.00
             48.42,9.17 36.03,13.55 24.00,21.67
             21.26,23.52 13.39,28.85 12.90,32.09
             12.14,37.05 23.05,46.01 27.00,48.20
             30.52,50.16 34.13,51.90 38.00,53.00
             38.00,53.00 37.00,32.00 37.00,32.00
             37.00,32.00 39.00,32.00 39.00,32.00
             40.81,40.00 42.59,45.45 42.96,54.00
             43.64,69.50 37.17,94.57 33.12,110.00
             33.12,110.00 25.92,144.00 25.92,144.00
             25.92,144.00 24.17,161.89 24.17,161.89
             24.63,165.76 28.13,166.29 31.00,168.13
             33.81,169.94 36.64,172.54 38.90,175.00
             47.90,184.86 53.36,200.84 51.00,214.00
             63.06,216.42 72.58,218.00 85.00,218.00
             86.61,209.16 92.52,202.46 99.04,196.58
             110.94,185.84 118.57,180.34 135.00,179.00
             135.00,179.00 138.56,161.00 138.56,161.00
             138.56,161.00 142.00,135.00 142.00,135.00
             142.00,135.00 142.00,126.00 142.00,126.00
             142.00,126.00 143.00,112.00 143.00,112.00
             143.00,112.00 142.00,97.00 142.00,97.00
             141.97,77.53 143.34,64.07 151.00,46.00
             151.00,46.00 153.00,46.00 153.00,46.00
             153.00,46.00 148.00,72.00 148.00,72.00
             155.75,74.27 169.38,75.77 177.00,72.86
             179.48,71.91 181.74,70.37 184.00,69.00
             173.07,43.62 153.04,19.57 125.00,13.00
             120.65,23.05 112.07,34.71 100.00,34.95 Z
           M 77.00,9.00
           C 81.81,29.47 102.43,38.03 116.47,20.00
             118.82,16.98 119.94,14.63 121.00,11.00
             116.76,12.51 113.15,19.98 107.00,23.87
             94.93,31.51 81.43,22.55 81.00,9.00
             81.00,9.00 77.00,9.00 77.00,9.00 Z
           M 6.00,38.00
           C 18.56,52.52 18.26,53.74 37.00,60.00
             35.31,55.31 29.08,54.70 25.00,52.12
             17.76,47.55 13.24,42.37 9.00,35.00
             9.00,35.00 6.00,38.00 6.00,38.00 Z
           M 67.69,60.02
           C 69.69,58.74 75.51,59.73 76.98,61.59
             77.84,62.68 77.78,63.76 78.00,65.00
             78.00,65.00 74.00,65.00 74.00,65.00
             74.67,71.43 72.73,75.05 73.33,79.00
             73.67,81.21 75.42,83.99 72.67,85.40
             68.29,87.63 58.85,82.87 67.00,80.00
             67.00,80.00 70.00,64.00 70.00,64.00
             70.00,64.00 66.00,62.00 66.00,62.00
             66.40,61.47 66.65,60.67 67.69,60.02 Z
           M 107.00,66.70
           C 109.95,66.93 114.75,64.61 118.57,68.43
             126.31,76.17 113.68,85.47 107.00,87.86
             104.25,88.69 100.74,89.37 98.04,87.86
             93.28,85.51 89.47,75.10 90.31,70.02
             90.81,67.03 91.85,66.27 94.19,64.74
             101.71,62.86 101.58,66.27 107.00,66.70 Z
           M 95.77,75.00
           C 97.53,84.73 102.13,85.40 110.00,80.65
             112.21,79.31 116.99,75.69 114.92,72.60
             112.24,68.61 106.38,74.87 104.21,74.40
             102.53,74.02 101.87,71.60 100.88,70.42
             99.28,68.50 98.27,68.51 95.77,68.00
             95.36,70.72 94.96,72.16 95.77,75.00 Z
           M 169.00,78.54
           C 161.23,79.94 155.30,78.39 148.00,76.00
             148.00,76.00 148.00,80.00 148.00,80.00
             158.17,81.34 180.02,83.28 186.00,73.00
             186.00,73.00 169.00,78.54 169.00,78.54 Z
           M 60.00,95.00
           C 60.00,95.00 63.00,103.00 63.00,103.00
             63.00,103.00 73.00,99.00 73.00,99.00
             72.93,106.26 71.17,114.46 68.00,121.00
             68.00,121.00 66.00,121.00 66.00,121.00
             64.47,115.17 66.19,112.78 67.00,107.00
             62.51,109.28 61.95,108.99 59.00,105.00
             57.38,109.94 57.28,116.17 52.00,118.00
             52.06,111.01 53.39,98.63 60.00,95.00 Z
           M 87.00,101.16
           C 100.89,102.81 90.87,127.86 81.00,125.16
             71.76,122.62 71.69,107.88 82.04,101.85
             83.94,101.33 84.92,100.92 87.00,101.16 Z
           M 80.99,118.21
           C 84.58,122.15 87.62,113.27 88.01,111.00
             88.41,108.68 88.22,107.28 88.01,105.00
             78.76,106.53 79.35,116.40 80.99,118.21 Z
           M 107.00,112.00
           C 108.14,109.74 112.32,104.08 114.62,108.36
             115.83,110.12 114.77,114.04 114.62,116.00
             113.39,121.80 113.78,129.63 106.00,128.00
             106.00,128.00 108.00,119.00 108.00,119.00
             103.61,118.25 103.46,117.62 101.00,114.00
             100.57,119.27 100.62,125.08 95.00,127.00
             95.00,116.58 95.04,114.25 98.00,104.00
             103.11,105.59 103.67,107.96 107.00,112.00 Z
           M 67.00,106.00
           C 67.00,106.00 68.00,107.00 68.00,107.00
             68.00,107.00 68.00,106.00 68.00,106.00
             68.00,106.00 67.00,106.00 67.00,106.00 Z
           M 108.00,118.00
           C 108.00,118.00 109.00,119.00 109.00,119.00
             109.00,119.00 109.00,118.00 109.00,118.00
             109.00,118.00 108.00,118.00 108.00,118.00 Z
           M 27.81,181.00
           C 30.94,189.00 41.00,203.93 47.00,210.00
             46.75,198.77 41.63,184.27 33.82,176.09
             31.22,173.37 27.97,171.30 25.00,169.00
             24.27,173.02 26.35,177.27 27.81,181.00 Z
           M 99.00,202.01
           C 93.68,207.27 89.82,211.33 89.00,219.00
             100.46,217.20 107.36,210.64 116.00,203.61
             123.10,197.84 129.09,193.58 133.00,185.00
             120.06,185.60 108.02,193.11 99.00,202.01 Z" />
</svg>
